<svg width="31" height="32" viewBox="0 0 31 32" fill="none" xmlns="http://www.w3.org/2000/svg">
<path d="M30.4503 13.1128H29.2118V13.049H15.3746V19.1988H24.0636C22.796 22.7788 19.3897 25.3487 15.3746 25.3487C10.2803 25.3487 6.14986 21.2183 6.14986 16.1239C6.14986 11.0295 10.2803 6.89913 15.3746 6.89913C17.7262 6.89913 19.8656 7.78624 21.4945 9.2353L25.8432 4.88659C23.0973 2.32748 19.4243 0.749268 15.3746 0.749268C6.884 0.749268 0 7.63327 0 16.1239C0 24.6146 6.884 31.4986 15.3746 31.4986C23.8653 31.4986 30.7493 24.6146 30.7493 16.1239C30.7493 15.093 30.6432 14.0868 30.4503 13.1128Z" fill="#FFC107"/>
<path d="M1.77222 8.96778L6.82356 12.6723C8.19036 9.28835 11.5005 6.89913 15.3742 6.89913C17.7257 6.89913 19.8651 7.78624 21.494 9.2353L25.8428 4.88659C23.0969 2.32748 19.4238 0.749268 15.3742 0.749268C9.46877 0.749268 4.34747 4.08326 1.77222 8.96778Z" fill="#FF3D00"/>
<path d="M15.3758 31.4977C19.347 31.4977 22.9555 29.9779 25.6837 27.5064L20.9252 23.4798C19.3816 24.6491 17.4629 25.3478 15.3758 25.3478C11.3768 25.3478 7.98132 22.798 6.70215 19.2395L1.68848 23.1024C4.23298 28.0815 9.4004 31.4977 15.3758 31.4977Z" fill="#4CAF50"/>
<path d="M30.4513 13.1119H29.2129V13.0481H15.3757V19.198H24.0647C23.4559 20.9176 22.3497 22.4005 20.9229 23.4806C20.9237 23.4798 20.9244 23.4798 20.9252 23.479L25.6837 27.5056C25.347 27.8116 30.7504 23.8104 30.7504 16.123C30.7504 15.0922 30.6443 14.0859 30.4513 13.1119Z" fill="#1976D2"/>
</svg>
