<svg width="38" height="30" viewBox="0 0 38 30" fill="none" xmlns="http://www.w3.org/2000/svg">
<path d="M37.2504 3.93169C35.8744 4.51392 34.4083 4.89984 32.8797 5.08723C34.4522 4.18154 35.6524 2.7583 36.2167 1.04284C34.7506 1.88607 33.1318 2.48169 31.4067 2.81407C30.0146 1.38415 28.0304 0.498535 25.8659 0.498535C21.6664 0.498535 18.2856 3.78669 18.2856 7.81769C18.2856 8.39769 18.3364 8.95538 18.4613 9.4863C12.1551 9.18961 6.57505 6.274 2.82649 1.83254C2.17205 2.92784 1.78818 4.18154 1.78818 5.53115C1.78818 8.0653 3.14099 10.3117 5.15749 11.6122C3.9388 11.5899 2.74324 11.2486 1.73037 10.711C1.73037 10.7333 1.73037 10.7623 1.73037 10.7913C1.73037 14.3471 4.35968 17.3007 7.80762 17.9811C7.19018 18.1439 6.51724 18.222 5.81887 18.222C5.33324 18.222 4.84299 18.1952 4.3828 18.0971C5.36562 20.9948 8.15449 23.1252 11.4706 23.1944C8.88987 25.1418 5.61305 26.3152 2.06568 26.3152C1.44362 26.3152 0.846991 26.2885 0.250366 26.2148C3.61043 28.3051 7.59255 29.4985 11.8869 29.4985C25.8451 29.4985 33.4764 18.3447 33.4764 8.67653C33.4764 8.35307 33.4648 8.04077 33.4486 7.73069C34.9541 6.70007 36.219 5.41292 37.2504 3.93169Z" fill="#03A9F4"/>
</svg>
